<svg version="1.1" id="Layer_1" xmlns="http://www.w3.org/2000/svg" xmlns:xlink="http://www.w3.org/1999/xlink" x="0px" y="0px"
	 width="100%" viewBox="0 0 400 400" enable-background="new 0 0 400 400" xml:space="preserve">
<path fill="#5730CB" opacity="1.000000" stroke="none" 
	d="
M229.000000,401.000000 
	C152.690353,401.000000 76.880722,401.000000 1.035541,401.000000 
	C1.035541,267.732025 1.035541,134.464050 1.035541,1.098030 
	C134.226257,1.098030 267.452606,1.098030 400.839478,1.098030 
	C400.839478,134.333176 400.839478,267.666565 400.839478,401.000000 
	C343.797455,401.000000 286.648712,401.000000 229.000000,401.000000 
M74.854927,88.543243 
	C74.628426,88.930511 74.401924,89.317787 74.279846,89.886131 
	C74.279846,89.886131 74.102173,89.996231 73.693748,90.342056 
	C73.502487,90.641899 73.311226,90.941734 73.113022,91.091240 
	C73.113022,91.091240 73.263451,91.086914 72.784485,91.455597 
	C72.530807,91.989426 72.277130,92.523254 71.995979,93.007629 
	C71.995979,93.007629 72.052078,93.014938 71.403412,93.294449 
	C70.981346,94.329124 70.559280,95.363800 70.138870,96.688675 
	C70.138870,96.688675 69.915977,96.874496 69.546257,97.247986 
	C69.387062,97.556854 69.227859,97.865723 69.068932,98.087044 
	C69.068932,98.087044 69.156448,98.089310 68.447754,98.238525 
	C65.823418,102.390778 61.858997,106.266441 60.929817,110.768547 
	C59.878933,115.860344 61.552895,121.514519 62.196304,127.628952 
	C62.135059,128.102692 62.073814,128.576416 61.574944,129.740662 
	C61.380753,131.213425 61.017635,132.686096 61.016865,134.158966 
	C60.991611,182.492035 60.991894,230.825119 61.028008,279.158173 
	C61.030220,282.120331 62.116165,285.296387 61.355732,287.994629 
	C60.181252,292.162018 61.469261,293.979279 65.210487,294.870026 
	C65.210487,294.870026 65.250137,294.757141 65.120941,295.631592 
	C65.161865,301.531830 66.698540,306.685760 72.112076,309.868835 
	C72.112076,309.868835 72.099297,309.763641 72.356461,310.234375 
	C72.610329,310.482880 72.864204,310.731384 73.540497,311.243500 
	C73.794830,311.486725 73.925537,311.784271 74.092216,312.678802 
	C74.456032,313.098389 74.819839,313.517944 75.589577,314.155762 
	C75.801598,314.391998 75.930161,314.667236 76.033928,315.716370 
	C77.751060,317.467590 79.468201,319.218811 81.771065,321.259430 
	C89.190117,328.086914 97.433800,333.683319 107.183716,336.451141 
	C113.031212,338.111084 119.153656,338.802521 125.794327,340.404968 
	C127.594521,340.619293 129.394577,341.019379 131.194916,341.020752 
	C177.664719,341.056091 224.134537,341.064453 270.604279,341.003387 
	C272.685638,341.000641 274.766113,340.303131 277.593506,339.541931 
	C283.447968,338.485748 289.443787,337.918488 295.128296,336.274689 
	C308.177032,332.501373 318.240753,324.205658 327.269409,313.596405 
	C327.534637,313.105682 327.799866,312.614960 328.169861,311.640137 
	C328.320740,311.326080 328.558685,311.106323 329.301819,310.646759 
	C329.501404,310.352295 329.700958,310.057831 329.887726,309.868622 
	C329.887726,309.868622 329.782898,309.852722 330.489471,309.746094 
	C334.788666,305.674316 337.335907,300.870850 336.788879,294.904144 
	C336.788879,294.904144 336.704407,294.778961 337.437775,294.778076 
	C338.729828,293.295563 340.950073,291.917511 341.131012,290.309937 
	C341.581512,286.307343 341.013641,282.200256 341.011993,278.135071 
	C340.992584,230.368073 341.013977,182.601059 340.961090,134.834122 
	C340.958954,132.905243 340.326752,130.977066 339.815033,128.352554 
	C339.863434,127.879936 339.911804,127.407318 340.392517,126.285149 
	C340.405182,122.212013 339.520050,117.864815 340.658508,114.135338 
	C342.070923,109.508430 340.628143,107.996712 336.564972,107.287590 
	C336.564972,107.287590 336.618286,107.321785 336.659637,106.686989 
	C336.396851,106.124176 336.134064,105.561371 335.955139,105.032593 
	C335.955139,105.032593 335.920166,105.116020 335.967865,104.286331 
	C335.858917,101.751038 336.543335,98.816017 332.929962,98.084435 
	C332.929962,98.084435 332.932495,98.169044 332.747009,97.688484 
	C332.529541,97.423653 332.312042,97.158813 331.857391,96.672493 
	C331.857391,96.672493 331.843475,96.348274 331.887604,95.582191 
	C330.852844,94.100121 329.818115,92.618050 328.899353,91.114655 
	C328.899353,91.114655 328.917969,91.231125 328.651520,90.740753 
	C328.393890,90.474724 328.136230,90.208694 327.763031,89.838097 
	C327.763031,89.838097 327.864075,89.719429 327.560822,89.105873 
	C327.252930,88.771210 326.945068,88.436554 326.835907,88.140877 
	C326.835907,88.140877 326.793121,88.338821 326.549347,87.841721 
	C326.286255,87.585411 326.023193,87.329102 325.865112,87.098190 
	C325.865112,87.098190 325.836853,87.202484 325.861206,86.455414 
	C324.076416,81.712914 320.978088,78.351883 315.995575,77.000580 
	C315.995575,77.000580 315.981720,77.056206 315.787537,76.450111 
	C314.918518,75.943031 314.049469,75.435951 312.694794,74.769974 
	C312.452606,74.538002 312.210388,74.306030 311.505676,73.647141 
	C311.133179,73.452980 310.760712,73.258820 310.230164,73.176285 
	C310.230164,73.176285 310.115356,73.020561 309.768158,72.626312 
	C309.484711,72.424759 309.201294,72.223213 308.981049,72.034920 
	C308.981049,72.034920 308.943146,72.087212 308.800934,71.407883 
	C302.705048,67.793365 296.995483,62.679558 290.405762,60.981632 
	C283.676727,59.247807 276.083191,61.011307 268.868683,60.996544 
	C216.504471,60.889385 164.140427,60.717583 111.776268,60.595760 
	C111.163788,60.594334 110.524055,60.927212 109.941727,61.199577 
	C106.267433,62.918072 102.439941,64.392326 98.998611,66.496147 
	C96.727470,67.884590 95.017555,70.191040 93.018593,72.034119 
	C93.018593,72.034119 93.081932,72.021690 92.632339,72.287872 
	C92.383133,72.532097 92.133919,72.776321 91.769585,73.175339 
	C91.769585,73.175339 91.612488,73.063370 91.028397,73.308250 
	C90.696297,73.563484 90.364197,73.818718 89.730400,74.487091 
	C89.426476,74.634766 89.122551,74.782440 88.178963,75.006042 
	C87.459015,75.689919 86.739059,76.373787 86.005447,77.001328 
	C86.005447,77.001328 86.057358,77.027130 85.323341,77.047768 
	C80.971672,79.258972 76.710709,81.552086 76.125732,87.090996 
	C76.125732,87.090996 76.230850,87.059959 75.791603,87.405640 
	C75.591835,87.717407 75.392067,88.029175 75.134598,88.131592 
	C75.134598,88.131592 75.344810,88.077065 74.854927,88.543243 
z"/>
<path fill="#FBF9FC" opacity="1.000000" stroke="none" 
	d="
M125.152527,339.929260 
	C119.153656,338.802521 113.031212,338.111084 107.183716,336.451141 
	C97.433800,333.683319 89.190117,328.086914 81.354942,320.798767 
	C79.284302,318.552582 77.629784,316.767029 75.975266,314.981476 
	C75.930161,314.667236 75.801598,314.391998 75.344864,313.755859 
	C74.710976,312.949341 74.321793,312.542755 73.932617,312.136139 
	C73.925537,311.784271 73.794830,311.486725 73.272911,310.829559 
	C72.703316,310.198303 72.401306,309.980957 72.099297,309.763641 
	C72.099297,309.763641 72.112076,309.868835 72.097595,309.505737 
	C69.805458,304.347504 67.527794,299.552307 65.250137,294.757141 
	C65.250137,294.757141 65.210487,294.870026 65.229782,294.426331 
	C64.255066,284.934570 62.463921,275.891937 62.402210,266.837524 
	C62.102760,222.899734 62.270363,178.958801 62.256264,135.018982 
	C62.255627,133.029343 62.097397,131.039764 62.012573,129.050156 
	C62.073814,128.576416 62.135059,128.102692 62.233566,126.890388 
	C64.566032,116.797653 66.861244,107.443481 69.156448,98.089310 
	C69.156448,98.089310 69.068932,98.087044 69.321533,98.003273 
	C69.688087,97.571167 69.802032,97.222832 69.915977,96.874496 
	C69.915977,96.874496 70.138870,96.688675 70.404633,96.342461 
	C71.130959,95.002472 71.591515,94.008705 72.052078,93.014938 
	C72.052078,93.014938 71.995979,93.007629 72.273163,92.879791 
	C72.788048,92.196938 73.025749,91.641922 73.263451,91.086914 
	C73.263451,91.086914 73.113022,91.091240 73.385696,91.052849 
	C73.806297,90.675049 73.954239,90.335640 74.102173,89.996231 
	C74.102173,89.996231 74.279846,89.886131 74.522476,89.606918 
	C74.958344,88.910820 75.151581,88.493942 75.344810,88.077065 
	C75.344810,88.077065 75.134598,88.131592 75.434273,88.117104 
	C75.899582,87.755066 76.065216,87.407516 76.230850,87.059959 
	C76.230850,87.059959 76.125732,87.090996 76.437584,86.982788 
	C79.852074,83.592087 82.954712,80.309608 86.057358,77.027130 
	C86.057358,77.027130 86.005447,77.001328 86.316971,76.978577 
	C87.358536,76.280586 88.088577,75.605347 88.818619,74.930115 
	C89.122551,74.782440 89.426476,74.634766 90.211075,74.239227 
	C90.998657,73.682037 91.305573,73.372704 91.612488,73.063370 
	C91.612488,73.063370 91.769585,73.175339 92.119034,73.070618 
	C92.672974,72.651161 92.877449,72.336426 93.081932,72.021690 
	C93.081932,72.021690 93.018593,72.034119 93.390900,71.992188 
	C103.555107,66.253380 114.040855,62.974232 125.438225,62.971661 
	C175.916962,62.960270 226.395706,62.962372 276.874451,62.983162 
	C278.862213,62.983982 280.972290,62.837334 282.816742,63.419933 
	C291.565247,66.183319 300.241302,69.176125 308.943146,72.087212 
	C308.943146,72.087212 308.981049,72.034920 309.042267,72.304039 
	C309.440765,72.722290 309.778076,72.871422 310.115356,73.020561 
	C310.115356,73.020561 310.230164,73.176285 310.490784,73.403076 
	C311.157013,73.777931 311.562592,73.925987 311.968201,74.074051 
	C312.210388,74.306030 312.452606,74.538002 313.059387,75.132660 
	C314.276550,76.015625 315.129120,76.535912 315.981720,77.056198 
	C315.981720,77.056206 315.995575,77.000580 316.121887,77.312256 
	C319.444427,80.816780 322.640656,84.009628 325.836853,87.202484 
	C325.836853,87.202484 325.865112,87.098190 325.884857,87.369385 
	C326.200775,87.873329 326.496948,88.106079 326.793121,88.338821 
	C326.793121,88.338821 326.835907,88.140877 326.844482,88.459778 
	C327.190063,89.092262 327.527069,89.405838 327.864075,89.719421 
	C327.864075,89.719429 327.763031,89.838097 327.853943,90.194588 
	C328.269196,90.777763 328.593597,91.004440 328.917969,91.231125 
	C328.917969,91.231125 328.899353,91.114655 328.916504,91.460609 
	C329.903595,93.320473 330.873535,94.834373 331.843475,96.348282 
	C331.843475,96.348274 331.857391,96.672493 331.992126,97.064079 
	C332.395386,97.693459 332.663940,97.931252 332.932495,98.169052 
	C332.932495,98.169044 332.929962,98.084435 332.937561,98.443214 
	C333.936798,100.906670 334.928497,103.011345 335.920166,105.116020 
	C335.920166,105.116020 335.955139,105.032593 335.927429,105.332932 
	C336.139252,106.196106 336.378754,106.758949 336.618286,107.321785 
	C336.618286,107.321785 336.564972,107.287590 336.604736,107.720306 
	C337.749695,114.413582 338.854950,120.674141 339.960175,126.934700 
	C339.911804,127.407318 339.863434,127.879936 339.800720,129.154037 
	C339.768646,173.361465 339.957031,216.769119 339.595062,260.172180 
	C339.498779,271.715027 337.713989,283.243744 336.704407,294.778961 
	C336.704407,294.778961 336.788879,294.904144 336.515320,295.083282 
	C334.088776,300.125854 331.935822,304.989288 329.782898,309.852722 
	C329.782898,309.852722 329.887726,309.868622 329.625610,309.921570 
	C329.203583,310.309967 329.043671,310.645447 328.883759,310.980896 
	C328.558685,311.106323 328.320740,311.326080 327.847290,312.001770 
	C327.288452,312.887512 327.052185,313.411621 326.815918,313.935699 
	C318.240753,324.205658 308.177032,332.501373 295.128296,336.274689 
	C289.443787,337.918488 283.447968,338.485748 276.773560,339.681274 
	C225.686600,339.856842 175.419571,339.893036 125.152527,339.929260 
M103.275414,86.906723 
	C102.837578,87.231041 102.399734,87.555359 101.263641,87.975975 
	C97.992531,90.952911 94.721420,93.929855 90.930527,97.268929 
	C85.328812,104.271355 81.314087,111.943092 80.349815,121.741951 
	C80.227333,122.727631 79.997993,123.713280 79.997696,124.698997 
	C79.982376,175.465347 79.979324,226.231689 80.025810,276.998016 
	C80.027107,278.417816 80.580414,279.837128 80.853119,282.059631 
	C82.228973,294.184265 88.063660,303.878418 97.392570,311.450348 
	C104.112518,316.904663 111.540977,321.035126 121.331284,321.615479 
	C122.979698,321.771545 124.628036,322.063202 126.276527,322.064026 
	C176.080093,322.088287 225.883698,322.094696 275.687225,322.043488 
	C277.623199,322.041504 279.558594,321.444336 282.275543,321.316223 
	C301.765991,319.481232 319.908356,300.773468 321.679901,280.593628 
	C321.788361,279.605652 321.991394,278.617737 321.991760,277.629730 
	C322.009918,226.892868 322.018005,176.156006 321.976654,125.419167 
	C321.975494,123.998352 321.425629,122.577980 321.121857,120.314346 
	C320.245392,111.315536 316.564514,103.583427 310.224518,96.267738 
	C306.828583,93.472427 303.432617,90.677109 299.749756,87.384972 
	C299.219055,87.181496 298.688324,86.978020 297.782043,86.188805 
	C291.336975,84.282898 284.905823,80.780106 278.444611,80.723724 
	C226.746750,80.272530 175.043152,80.434372 123.341492,80.519409 
	C116.268372,80.531052 109.700432,82.714211 103.275414,86.906723 
z"/>
<path fill="#6143BA" opacity="1.000000" stroke="none" 
	d="
M308.872040,71.747543 
	C300.241302,69.176125 291.565247,66.183319 282.816742,63.419933 
	C280.972290,62.837334 278.862213,62.983982 276.874451,62.983162 
	C226.395706,62.962372 175.916962,62.960270 125.438225,62.971661 
	C114.040855,62.974232 103.555107,66.253380 93.409775,72.018356 
	C95.017555,70.191040 96.727470,67.884590 98.998611,66.496147 
	C102.439941,64.392326 106.267433,62.918072 109.941727,61.199577 
	C110.524055,60.927212 111.163788,60.594334 111.776268,60.595760 
	C164.140427,60.717583 216.504471,60.889385 268.868683,60.996544 
	C276.083191,61.011307 283.676727,59.247807 290.405762,60.981632 
	C296.995483,62.679558 302.705048,67.793365 308.872040,71.747543 
z"/>
<path fill="#6143BA" opacity="1.000000" stroke="none" 
	d="
M337.071106,294.778503 
	C337.713989,283.243744 339.498779,271.715027 339.595062,260.172180 
	C339.957031,216.769119 339.768646,173.361465 339.887268,129.502045 
	C340.326752,130.977066 340.958954,132.905243 340.961090,134.834122 
	C341.013977,182.601059 340.992584,230.368073 341.011993,278.135071 
	C341.013641,282.200256 341.581512,286.307343 341.131012,290.309937 
	C340.950073,291.917511 338.729828,293.295563 337.071106,294.778503 
z"/>
<path fill="#6143BA" opacity="1.000000" stroke="none" 
	d="
M61.793755,129.395416 
	C62.097397,131.039764 62.255627,133.029343 62.256264,135.018982 
	C62.270363,178.958801 62.102760,222.899734 62.402210,266.837524 
	C62.463921,275.891937 64.255066,284.934570 65.274292,294.386353 
	C61.469261,293.979279 60.181252,292.162018 61.355732,287.994629 
	C62.116165,285.296387 61.030220,282.120331 61.028008,279.158173 
	C60.991894,230.825119 60.991611,182.492035 61.016865,134.158966 
	C61.017635,132.686096 61.380753,131.213425 61.793755,129.395416 
z"/>
<path fill="#5338A0" opacity="1.000000" stroke="none" 
	d="
M125.473427,340.167114 
	C175.419571,339.893036 225.686600,339.856842 276.400330,339.874939 
	C274.766113,340.303131 272.685638,341.000641 270.604279,341.003387 
	C224.134537,341.064453 177.664719,341.056091 131.194916,341.020752 
	C129.394577,341.019379 127.594521,340.619293 125.473427,340.167114 
z"/>
<path fill="#6143BA" opacity="1.000000" stroke="none" 
	d="
M68.802109,98.163918 
	C66.861244,107.443481 64.566032,116.797653 62.156395,126.537979 
	C61.552895,121.514519 59.878933,115.860344 60.929817,110.768547 
	C61.858997,106.266441 65.823418,102.390778 68.802109,98.163918 
z"/>
<path fill="#6143BA" opacity="1.000000" stroke="none" 
	d="
M340.176331,126.609924 
	C338.854950,120.674141 337.749695,114.413582 336.607849,107.751816 
	C340.628143,107.996712 342.070923,109.508430 340.658508,114.135338 
	C339.520050,117.864815 340.405182,122.212013 340.176331,126.609924 
z"/>
<path fill="#6143BA" opacity="1.000000" stroke="none" 
	d="
M65.185532,295.194366 
	C67.527794,299.552307 69.805458,304.347504 72.149994,309.497803 
	C66.698540,306.685760 65.161865,301.531830 65.185532,295.194366 
z"/>
<path fill="#6143BA" opacity="1.000000" stroke="none" 
	d="
M330.136169,309.799408 
	C331.935822,304.989288 334.088776,300.125854 336.495483,295.010437 
	C337.335907,300.870850 334.788666,305.674316 330.136169,309.799408 
z"/>
<path fill="#6143BA" opacity="1.000000" stroke="none" 
	d="
M85.690353,77.037445 
	C82.954712,80.309608 79.852074,83.592087 76.454430,87.034935 
	C76.710709,81.552086 80.971672,79.258972 85.690353,77.037445 
z"/>
<path fill="#6143BA" opacity="1.000000" stroke="none" 
	d="
M325.849030,86.828949 
	C322.640656,84.009628 319.444427,80.816780 316.096313,77.325172 
	C320.978088,78.351883 324.076416,81.712914 325.849030,86.828949 
z"/>
<path fill="#6143BA" opacity="1.000000" stroke="none" 
	d="
M76.004593,315.348938 
	C77.629784,316.767029 79.284302,318.552582 81.062073,320.654083 
	C79.468201,319.218811 77.751060,317.467590 76.004593,315.348938 
z"/>
<path fill="#6143BA" opacity="1.000000" stroke="none" 
	d="
M335.944031,104.701172 
	C334.928497,103.011345 333.936798,100.906670 332.895264,98.445473 
	C336.543335,98.816017 335.858917,101.751038 335.944031,104.701172 
z"/>
<path fill="#6143BA" opacity="1.000000" stroke="none" 
	d="
M331.865540,95.965240 
	C330.873535,94.834373 329.903595,93.320473 328.858521,91.471275 
	C329.818115,92.618050 330.852844,94.100121 331.865540,95.965240 
z"/>
<path fill="#6143BA" opacity="1.000000" stroke="none" 
	d="
M315.884644,76.753159 
	C315.129120,76.535912 314.276550,76.015625 313.302185,75.212105 
	C314.049469,75.435951 314.918518,75.943031 315.884644,76.753159 
z"/>
<path fill="#6143BA" opacity="1.000000" stroke="none" 
	d="
M88.498795,74.968079 
	C88.088577,75.605347 87.358536,76.280586 86.323799,77.006744 
	C86.739059,76.373787 87.459015,75.689919 88.498795,74.968079 
z"/>
<path fill="#6143BA" opacity="1.000000" stroke="none" 
	d="
M71.727745,93.154694 
	C71.591515,94.008705 71.130959,95.002472 70.403809,96.197357 
	C70.559280,95.363800 70.981346,94.329124 71.727745,93.154694 
z"/>
<path fill="#6143BA" opacity="1.000000" stroke="none" 
	d="
M74.012421,312.407471 
	C74.321793,312.542755 74.710976,312.949341 75.141907,313.646729 
	C74.819839,313.517944 74.456032,313.098389 74.012421,312.407471 
z"/>
<path fill="#6143BA" opacity="1.000000" stroke="none" 
	d="
M327.042664,313.766052 
	C327.052185,313.411621 327.288452,312.887512 327.794922,312.243835 
	C327.799866,312.614960 327.534637,313.105682 327.042664,313.766052 
z"/>
<path fill="#6143BA" opacity="1.000000" stroke="none" 
	d="
M336.638977,107.004387 
	C336.378754,106.758949 336.139252,106.196106 335.885529,105.315918 
	C336.134064,105.561371 336.396851,106.124176 336.638977,107.004387 
z"/>
<path fill="#6143BA" opacity="1.000000" stroke="none" 
	d="
M73.023972,91.271255 
	C73.025749,91.641922 72.788048,92.196938 72.286896,92.904510 
	C72.277130,92.523254 72.530807,91.989426 73.023972,91.271255 
z"/>
<path fill="#6143BA" opacity="1.000000" stroke="none" 
	d="
M69.731117,97.061241 
	C69.802032,97.222832 69.688087,97.571167 69.321404,98.047043 
	C69.227859,97.865723 69.387062,97.556854 69.731117,97.061241 
z"/>
<path fill="#6143BA" opacity="1.000000" stroke="none" 
	d="
M72.227875,309.999023 
	C72.401306,309.980957 72.703316,310.198303 73.061699,310.697754 
	C72.864204,310.731384 72.610329,310.482880 72.227875,309.999023 
z"/>
<path fill="#6143BA" opacity="1.000000" stroke="none" 
	d="
M332.839752,97.928772 
	C332.663940,97.931252 332.395386,97.693459 332.110718,97.174820 
	C332.312042,97.158813 332.529541,97.423653 332.839752,97.928772 
z"/>
<path fill="#6143BA" opacity="1.000000" stroke="none" 
	d="
M92.857132,72.154785 
	C92.877449,72.336426 92.672974,72.651161 92.176598,72.993217 
	C92.133919,72.776321 92.383133,72.532097 92.857132,72.154785 
z"/>
<path fill="#6143BA" opacity="1.000000" stroke="none" 
	d="
M329.092773,310.813843 
	C329.043671,310.645447 329.203583,310.309967 329.632019,309.868927 
	C329.700958,310.057831 329.501404,310.352295 329.092773,310.813843 
z"/>
<path fill="#6143BA" opacity="1.000000" stroke="none" 
	d="
M309.941772,72.823441 
	C309.778076,72.871422 309.440765,72.722290 309.010681,72.297409 
	C309.201294,72.223213 309.484711,72.424759 309.941772,72.823441 
z"/>
<path fill="#6143BA" opacity="1.000000" stroke="none" 
	d="
M327.712463,89.412643 
	C327.527069,89.405838 327.190063,89.092262 326.745117,88.440292 
	C326.945068,88.436554 327.252930,88.771210 327.712463,89.412643 
z"/>
<path fill="#6143BA" opacity="1.000000" stroke="none" 
	d="
M91.320442,73.185806 
	C91.305573,73.372704 90.998657,73.682037 90.361923,74.032661 
	C90.364197,73.818718 90.696297,73.563484 91.320442,73.185806 
z"/>
<path fill="#6143BA" opacity="1.000000" stroke="none" 
	d="
M311.736938,73.860596 
	C311.562592,73.925987 311.157013,73.777931 310.569824,73.347267 
	C310.760712,73.258820 311.133179,73.452980 311.736938,73.860596 
z"/>
<path fill="#6143BA" opacity="1.000000" stroke="none" 
	d="
M328.784729,90.985939 
	C328.593597,91.004440 328.269196,90.777763 327.911713,90.246872 
	C328.136230,90.208694 328.393890,90.474724 328.784729,90.985939 
z"/>
<path fill="#6143BA" opacity="1.000000" stroke="none" 
	d="
M76.011230,87.232803 
	C76.065216,87.407516 75.899582,87.755066 75.463120,88.221786 
	C75.392067,88.029175 75.591835,87.717407 76.011230,87.232803 
z"/>
<path fill="#6143BA" opacity="1.000000" stroke="none" 
	d="
M326.671234,88.090271 
	C326.496948,88.106079 326.200775,87.873329 325.832336,87.356689 
	C326.023193,87.329102 326.286255,87.585411 326.671234,88.090271 
z"/>
<path fill="#6143BA" opacity="1.000000" stroke="none" 
	d="
M75.099869,88.310150 
	C75.151581,88.493942 74.958344,88.910820 74.470268,89.516380 
	C74.401924,89.317787 74.628426,88.930511 75.099869,88.310150 
z"/>
<path fill="#6143BA" opacity="1.000000" stroke="none" 
	d="
M73.897964,90.169144 
	C73.954239,90.335640 73.806297,90.675049 73.389160,91.128014 
	C73.311226,90.941734 73.502487,90.641899 73.897964,90.169144 
z"/>
<path fill="#5731CA" opacity="1.000000" stroke="none" 
	d="
M120.569122,321.152557 
	C111.540977,321.035126 104.112518,316.904663 97.392570,311.450348 
	C88.063660,303.878418 82.228973,294.184265 80.897949,281.175415 
	C80.967041,267.318329 81.020828,254.345413 81.010086,241.372559 
	C80.976883,201.288727 80.919083,161.204926 80.870834,121.121109 
	C81.314087,111.943092 85.328812,104.271355 91.594910,97.091057 
	C93.433975,96.426369 94.676544,96.057426 95.769165,95.428108 
	C98.019371,94.132080 100.189468,92.696945 102.756119,91.091652 
	C102.655067,90.682976 102.308479,89.281334 101.961899,87.879684 
	C102.399734,87.555359 102.837578,87.231041 103.816330,87.017754 
	C109.134544,86.096016 114.422562,86.005898 118.548325,83.770592 
	C122.842812,81.443863 126.942833,81.107079 131.412476,81.107529 
	C177.557877,81.112206 223.703262,81.112343 269.848663,81.106926 
	C274.487579,81.106384 279.150696,80.631172 283.189484,83.911949 
	C284.196655,84.730072 286.033478,84.507256 287.479279,84.809380 
	C289.839935,85.302673 292.185333,85.871391 294.551697,86.333855 
	C295.737122,86.565521 296.954620,86.632881 298.157623,86.774551 
	C298.688324,86.978020 299.219055,87.181496 299.854309,87.967331 
	C299.621033,89.758102 299.283203,90.966522 299.286041,90.956429 
	C301.940491,92.652786 303.949432,94.085419 306.100342,95.257469 
	C307.474548,96.006279 309.058777,96.369690 310.548828,96.905884 
	C316.564514,103.583427 320.245392,111.315536 321.101440,121.186653 
	C321.050598,148.842468 320.991577,175.625961 320.997803,202.409470 
	C321.003876,228.693497 321.076294,254.977539 321.119598,281.261566 
	C319.908356,300.773468 301.765991,319.481232 281.378326,321.206085 
	C263.990356,321.059967 247.499557,320.983521 231.008820,320.996277 
	C194.195572,321.024750 157.382355,321.097717 120.569122,321.152557 
M168.701706,175.892059 
	C168.433365,176.074692 168.241882,176.317795 167.521988,177.022934 
	C161.319504,181.953354 160.258423,186.743881 163.980469,192.997864 
	C163.980469,192.997864 164.046555,193.009857 164.189941,193.623520 
	C165.426682,194.745071 166.663406,195.866638 168.371887,197.394257 
	C168.956558,197.583221 169.541229,197.772171 170.059753,197.965805 
	C170.059753,197.965805 170.069916,197.900223 170.714127,198.421295 
	C178.119598,198.692688 185.525085,198.964066 193.330093,199.814774 
	C195.907776,199.611954 198.485458,199.409134 201.991669,199.171906 
	C224.318893,199.108490 246.646133,199.045074 269.765839,198.982147 
	C275.486237,199.204865 278.396729,195.040939 280.475616,190.929977 
	C281.203094,189.491455 278.568146,186.352570 277.261536,183.261093 
	C276.843994,182.341095 276.426453,181.421097 275.973541,179.799576 
	C275.114105,176.554977 273.123230,175.190018 269.988251,176.068756 
	C269.988251,176.068756 269.966278,176.275757 269.847900,175.733612 
	C269.204712,175.744400 268.561554,175.755173 267.273254,175.801559 
	C266.872742,175.652893 266.472260,175.504211 265.863068,174.702866 
	C264.262115,174.224884 262.664337,173.362503 261.059540,173.349243 
	C257.757904,173.321945 254.452972,173.948578 251.148544,173.956619 
	C226.876801,174.015686 202.604813,173.971222 178.333023,174.018280 
	C176.203033,174.022400 174.073883,174.448227 171.365509,174.831818 
	C170.972153,174.904724 170.578781,174.977615 169.788574,175.180496 
	C169.533844,175.295044 169.306259,175.449554 168.701706,175.892059 
M114.055885,166.030594 
	C114.055885,166.030594 114.113678,166.090240 113.389832,166.087448 
	C112.268127,167.098175 111.146423,168.108902 109.903511,169.556900 
	C109.751022,169.847427 109.512817,170.018860 108.461418,170.213837 
	C103.838196,172.629517 104.779190,176.924255 105.338554,180.709457 
	C106.033035,185.409012 108.697861,189.317291 113.491341,190.367783 
	C116.871895,191.108627 120.974571,192.907257 123.902115,188.913574 
	C123.902115,188.913574 123.819153,188.838333 124.568687,188.866577 
	C125.976311,187.819611 127.383934,186.772644 128.957733,185.845520 
	C128.957733,185.845520 128.772964,185.757172 129.556473,185.840973 
	C135.104568,184.450546 139.583740,181.522049 142.921509,176.728714 
	C142.921509,176.728714 142.729431,176.719971 143.367737,176.682343 
	C143.820602,176.276459 144.273483,175.870575 144.731354,175.553421 
	C144.731354,175.553421 144.642593,175.549286 145.403137,175.749191 
	C147.111862,176.138275 148.820602,176.527359 150.528259,176.916214 
	C150.643097,174.737396 150.728439,173.118317 151.057953,171.187973 
	C151.290344,171.050751 151.541397,170.977020 152.581970,170.939529 
	C161.255753,168.574829 167.729660,162.571548 174.722153,157.449783 
	C175.401077,156.952499 175.529633,155.703812 175.959335,153.977585 
	C176.153519,153.186111 176.466568,152.403015 176.522919,151.601852 
	C176.945847,145.589767 178.918030,139.127823 173.304062,134.424423 
	C169.309601,131.077850 164.912964,128.191132 160.573242,125.282051 
	C155.421326,121.828514 150.137970,118.571053 144.733902,114.566109 
	C139.591492,110.372795 134.449066,106.179482 128.925674,101.675507 
	C128.671585,101.794899 127.262367,102.457069 125.918037,103.065224 
	C125.918037,103.065224 125.904381,103.148537 125.765671,102.455452 
	C124.489441,99.530502 122.415924,99.669640 119.339058,101.044800 
	C118.871056,101.001022 118.403061,100.957237 117.298210,100.549500 
	C112.941185,99.901131 106.184242,103.435135 105.207985,106.872894 
	C102.235237,117.341064 109.718895,127.819214 120.995605,129.008057 
	C120.995605,129.008057 120.994736,128.989456 121.145203,129.679001 
	C124.949783,134.707047 128.812500,139.639847 136.078873,138.934021 
	C136.078873,138.934021 136.131912,138.821960 136.325897,139.470795 
	C137.273849,139.939682 138.221817,140.408554 139.100525,140.892883 
	C139.100525,140.892883 139.105255,140.822083 139.205093,141.595093 
	C141.060867,146.072922 138.894913,148.716278 135.146530,150.761169 
	C131.980087,152.488571 128.697281,154.106003 125.835205,156.262207 
	C122.138229,159.047394 118.808640,162.320190 115.295540,165.283981 
	C115.295540,165.283981 115.396141,165.265778 114.875610,165.443024 
	C114.582611,165.658279 114.289612,165.873535 114.055885,166.030594 
M209.958893,291.121124 
	C224.052521,291.099426 238.146988,291.159729 252.239319,291.013153 
	C257.440979,290.959076 262.637543,290.417664 268.792145,290.029724 
	C278.075989,290.005096 287.363403,290.129272 296.642395,289.904572 
	C303.061615,289.749207 307.483490,285.460754 307.957886,279.545624 
	C308.433289,273.617371 305.146393,269.316223 298.774506,267.905151 
	C296.370911,267.372864 293.855804,267.179474 291.386505,267.139313 
	C284.259552,267.023376 277.130035,267.064087 269.977936,266.221161 
	C269.637573,263.774353 269.297211,261.327576 269.269257,258.549225 
	C269.498108,258.346283 269.750244,258.178345 270.539124,258.350037 
	C271.340576,257.511261 272.142029,256.672516 273.129974,255.111252 
	C274.967468,251.237183 276.032410,247.287811 273.572906,243.303192 
	C270.778839,238.776535 266.329010,237.201981 261.317108,237.115067 
	C252.896576,236.969025 244.472702,237.016556 235.658554,236.717072 
	C235.073959,236.795486 234.489365,236.873901 233.129730,237.019760 
	C232.360809,237.114258 231.591873,237.208771 230.821289,237.090149 
	C230.821289,237.090149 231.034409,237.087326 230.323380,236.647232 
	C219.923386,236.421417 209.524094,236.051987 199.123230,236.000320 
	C178.849350,235.899597 158.574234,235.922897 138.300751,236.060852 
	C136.199432,236.075165 134.105728,237.209106 131.293167,237.982651 
	C125.007095,241.909088 122.834160,248.491302 126.132805,254.114960 
	C127.187126,255.912384 128.700958,257.440308 130.309692,259.692291 
	C131.546158,260.124695 132.782608,260.557129 134.846085,261.007538 
	C136.222641,261.039764 137.599213,261.071991 139.134705,261.855804 
	C140.966675,262.570099 142.805298,263.917572 144.629562,263.898407 
	C159.196228,263.745422 173.759369,263.283875 188.325760,263.052856 
	C190.595154,263.016846 193.066376,263.225647 195.109222,264.102112 
	C198.844604,265.704834 199.431458,269.068268 196.826340,271.568512 
	C192.435730,275.782379 192.510666,277.300781 197.211090,281.889862 
	C197.211090,281.889862 197.218750,281.765717 197.139236,282.576630 
	C198.288177,284.009094 199.437119,285.441559 201.040329,287.028442 
	C201.346939,287.383392 201.653534,287.738373 201.998672,288.842987 
	C203.513733,290.728271 205.028793,292.613556 206.543854,294.498840 
	C207.371094,293.385406 208.198334,292.272003 209.958893,291.121124 
M91.000000,220.000000 
	C91.000000,220.000000 90.975189,220.019882 90.981865,220.820206 
	C91.676720,228.169891 94.575958,230.946503 101.730087,230.990753 
	C115.518311,231.076019 129.307632,231.047287 143.094910,231.204178 
	C159.237579,231.387848 175.378098,231.795517 191.520844,231.895508 
	C193.690796,231.908936 195.868362,230.693954 198.202866,229.684219 
	C198.202866,229.684219 198.268677,229.292313 198.944046,229.171158 
	C199.619370,229.047821 200.294693,228.924469 201.655518,229.273514 
	C211.612000,229.425644 221.578125,229.898270 231.521027,229.599091 
	C236.747910,229.441818 241.434402,224.166962 241.827652,219.514038 
	C242.259323,214.406555 238.975616,209.670105 233.423264,207.908051 
	C231.411179,207.269501 229.178879,207.137222 227.042770,207.110123 
	C218.388016,207.000366 209.731613,207.021439 200.337585,206.592499 
	C198.206177,206.381210 196.075378,205.994827 193.943253,205.987366 
	C181.197449,205.942703 168.451309,205.992554 155.705292,205.996887 
	C139.931686,206.002243 124.157921,205.960526 108.384651,206.032013 
	C106.280792,206.041550 104.179398,206.595291 101.416161,207.185577 
	C98.427902,209.163895 95.439644,211.142212 91.785530,213.440933 
	C91.515259,215.633591 91.244987,217.826233 91.000000,220.000000 
z"/>
<path fill="#6043B4" opacity="1.000000" stroke="none" 
	d="
M297.969849,86.481674 
	C296.954620,86.632881 295.737122,86.565521 294.551697,86.333855 
	C292.185333,85.871391 289.839935,85.302673 287.479279,84.809380 
	C286.033478,84.507256 284.196655,84.730072 283.189484,83.911949 
	C279.150696,80.631172 274.487579,81.106384 269.848663,81.106926 
	C223.703262,81.112343 177.557877,81.112206 131.412476,81.107529 
	C126.942833,81.107079 122.842812,81.443863 118.548325,83.770592 
	C114.422562,86.005898 109.134544,86.096016 104.094711,86.954483 
	C109.700432,82.714211 116.268372,80.531052 123.341492,80.519409 
	C175.043152,80.434372 226.746750,80.272530 278.444611,80.723724 
	C284.905823,80.780106 291.336975,84.282898 297.969849,86.481674 
z"/>
<path fill="#54408A" opacity="1.000000" stroke="none" 
	d="
M120.950203,321.384033 
	C157.382355,321.097717 194.195572,321.024750 231.008820,320.996277 
	C247.499557,320.983521 263.990356,321.059967 280.987671,321.110229 
	C279.558594,321.444336 277.623199,322.041504 275.687225,322.043488 
	C225.883698,322.094696 176.080093,322.088287 126.276527,322.064026 
	C124.628036,322.063202 122.979698,321.771545 120.950203,321.384033 
z"/>
<path fill="#524379" opacity="1.000000" stroke="none" 
	d="
M321.399750,280.927612 
	C321.076294,254.977539 321.003876,228.693497 320.997803,202.409470 
	C320.991577,175.625961 321.050598,148.842468 321.106323,121.608185 
	C321.425629,122.577980 321.975494,123.998352 321.976654,125.419167 
	C322.018005,176.156006 322.009918,226.892868 321.991760,277.629730 
	C321.991394,278.617737 321.788361,279.605652 321.399750,280.927612 
z"/>
<path fill="#53427B" opacity="1.000000" stroke="none" 
	d="
M80.610321,121.431534 
	C80.919083,161.204926 80.976883,201.288727 81.010086,241.372559 
	C81.020828,254.345413 80.967041,267.318329 80.909546,280.773926 
	C80.580414,279.837128 80.027107,278.417816 80.025810,276.998016 
	C79.979324,226.231689 79.982376,175.465347 79.997696,124.698997 
	C79.997993,123.713280 80.227333,122.727631 80.610321,121.431534 
z"/>
<path fill="#6043B4" opacity="1.000000" stroke="none" 
	d="
M101.612770,87.927826 
	C102.308479,89.281334 102.655067,90.682976 102.756119,91.091652 
	C100.189468,92.696945 98.019371,94.132080 95.769165,95.428108 
	C94.676544,96.057426 93.433975,96.426369 91.854797,96.909988 
	C94.721420,93.929855 97.992531,90.952911 101.612770,87.927826 
z"/>
<path fill="#6043B4" opacity="1.000000" stroke="none" 
	d="
M310.386658,96.586807 
	C309.058777,96.369690 307.474548,96.006279 306.100342,95.257469 
	C303.949432,94.085419 301.940491,92.652786 299.286041,90.956429 
	C299.283203,90.966522 299.621033,89.758102 299.997772,88.215736 
	C303.432617,90.677109 306.828583,93.472427 310.386658,96.586807 
z"/>
<path fill="#FCFAFB" opacity="1.000000" stroke="none" 
	d="
M151.811081,170.966766 
	C151.541397,170.977020 151.290344,171.050751 150.604202,171.446350 
	C148.314499,172.986252 146.478546,174.267761 144.642593,175.549286 
	C144.642593,175.549286 144.731354,175.553421 144.420349,175.562027 
	C143.649384,175.953751 143.189407,176.336868 142.729431,176.719971 
	C142.729431,176.719971 142.921509,176.728714 142.480133,176.763763 
	C137.616837,179.784943 133.194901,182.771057 128.772964,185.757172 
	C128.772964,185.757172 128.957733,185.845520 128.549194,185.866669 
	C126.700157,186.871323 125.259659,187.854828 123.819153,188.838333 
	C123.819153,188.838333 123.902115,188.913574 123.440445,188.922546 
	C117.412315,190.151855 112.356071,189.554504 108.840935,184.477005 
	C105.502350,179.654556 106.392479,174.809616 109.188896,170.071167 
	C109.512817,170.018860 109.751022,169.847427 110.276497,169.241364 
	C111.804214,167.980637 112.958939,167.035431 114.113678,166.090240 
	C114.113678,166.090240 114.055885,166.030594 114.315613,166.027069 
	C114.848946,165.770966 115.122543,165.518372 115.396141,165.265778 
	C115.396141,165.265778 115.295540,165.283981 115.647118,165.245743 
	C124.735718,159.570328 133.470398,153.929535 142.210770,148.297562 
	C146.267349,145.683655 146.288651,144.847015 142.216812,142.318741 
	C141.244659,141.715118 140.145828,141.315521 139.105255,140.822083 
	C139.105255,140.822083 139.100525,140.892883 138.980652,140.603195 
	C137.951157,139.816330 137.041534,139.319138 136.131912,138.821960 
	C136.131912,138.821960 136.078873,138.934021 135.933578,138.610809 
	C130.857101,135.188217 125.925919,132.088837 120.994736,128.989456 
	C120.994736,128.989456 120.995605,129.008057 120.838333,128.710175 
	C118.313736,126.920204 115.924294,125.461891 113.583710,123.928970 
	C108.834503,120.818588 105.743454,116.748177 107.002968,110.741478 
	C108.224251,104.917107 112.188812,101.852669 117.935059,100.913460 
	C118.403061,100.957237 118.871056,101.001022 120.006073,101.143097 
	C122.416855,101.877113 124.160614,102.512825 125.904381,103.148537 
	C125.904381,103.148537 125.918037,103.065224 126.081345,103.369873 
	C132.466949,107.525894 138.689270,111.377266 144.911575,115.228630 
	C150.137970,118.571053 155.421326,121.828514 160.573242,125.282051 
	C164.912964,128.191132 169.309601,131.077850 173.304062,134.424423 
	C178.918030,139.127823 176.945847,145.589767 176.522919,151.601852 
	C176.466568,152.403015 176.153519,153.186111 175.598938,154.480240 
	C167.429398,160.310852 159.620239,165.638809 151.811081,170.966766 
z"/>
<path fill="#FEFEFE" opacity="1.000000" stroke="none" 
	d="
M269.966278,176.275757 
	C269.966278,176.275757 269.988251,176.068756 270.026398,176.345947 
	C271.095825,177.299530 272.127106,177.975937 273.139893,179.036911 
	C274.055969,180.613495 274.990509,181.805527 276.019958,183.155853 
	C276.114868,183.314148 276.147095,183.681870 276.135559,184.027039 
	C276.363159,185.245361 276.602356,186.118515 276.900482,187.356079 
	C276.297668,189.476105 275.635864,191.231705 274.689667,193.092560 
	C273.955414,193.827805 273.505554,194.457779 273.047028,195.055344 
	C273.038330,195.022934 273.102448,195.042770 272.898621,195.146439 
	C272.438599,195.420670 272.219330,195.629913 271.787720,196.099533 
	C270.707367,196.585907 269.876282,196.850586 268.796570,196.916229 
	C267.357086,197.085800 266.166229,197.454407 264.512482,197.889542 
	C235.034302,197.908646 206.019058,197.861237 176.889038,197.733978 
	C176.488098,197.560013 176.230972,197.613739 175.632187,197.882874 
	C174.511581,197.908722 173.761673,197.867035 172.852158,197.535873 
	C169.810562,195.834198 166.928558,194.422028 164.046555,193.009857 
	C164.046555,193.009857 163.980469,192.997864 164.016296,192.562103 
	C164.358429,186.570679 165.344391,181.233826 169.272079,176.564926 
	C170.389877,176.121033 171.235733,175.868652 172.543930,175.646896 
	C199.395035,175.683456 225.783798,175.705795 252.172516,175.679947 
	C256.805695,175.675400 261.438690,175.468826 266.071747,175.355545 
	C266.472260,175.504211 266.872742,175.652893 267.831604,175.912170 
	C268.915375,176.107101 269.440826,176.191422 269.966278,176.275757 
z"/>
<path fill="#ECE7F9" opacity="1.000000" stroke="none" 
	d="
M200.970016,228.801132 
	C200.294693,228.924469 199.619370,229.047821 198.128357,229.133469 
	C174.554260,228.985718 151.795853,228.875671 129.018692,228.389587 
	C128.339218,226.155563 127.749779,224.268356 127.003052,222.445602 
	C125.404320,218.543060 125.435646,214.389206 128.687607,211.896210 
	C131.442551,209.784256 135.388855,208.274719 138.847366,208.194336 
	C155.110840,207.816391 171.388000,208.050552 187.659988,207.987900 
	C189.782303,207.979736 191.902878,207.518509 194.354706,207.206314 
	C195.128448,207.187820 195.571732,207.230148 196.175812,207.417328 
	C196.566696,207.742462 196.822067,207.873489 197.470795,207.956482 
	C198.575195,207.961258 199.311493,207.964828 200.263382,208.228195 
	C208.906982,214.225449 209.055878,220.384628 200.970016,228.801132 
z"/>
<path fill="#DFD6FA" opacity="1.000000" stroke="none" 
	d="
M130.004547,259.091522 
	C128.700958,257.440308 127.187126,255.912384 126.132805,254.114960 
	C122.834160,248.491302 125.007095,241.909088 132.064941,237.888657 
	C134.965012,237.564270 137.092972,237.136566 139.221619,237.133179 
	C169.825836,237.084381 200.430130,237.092712 231.034409,237.087326 
	C231.034409,237.087326 230.821289,237.090149 230.839996,237.374237 
	C230.858688,237.658325 230.967392,237.998810 230.502167,238.018799 
	C226.210831,238.040833 222.383804,237.990128 218.558716,238.054016 
	C201.281311,238.342590 183.999481,238.527176 166.733994,239.154221 
	C164.692505,239.228363 161.857056,241.350372 160.899445,243.274490 
	C156.449875,252.214981 160.723984,258.850952 170.747620,258.912109 
	C190.874985,259.034912 211.003189,259.021240 231.048187,259.254852 
	C230.965302,259.445831 230.811783,259.832886 230.356705,259.850891 
	C223.911346,259.879913 217.921051,259.888153 211.930771,259.902405 
	C185.977631,259.964142 160.024490,260.027618 133.744324,259.939789 
	C132.279709,259.556580 131.142120,259.324066 130.004547,259.091522 
z"/>
<path fill="#E0D7F8" opacity="1.000000" stroke="none" 
	d="
M201.960129,288.093353 
	C201.653534,287.738373 201.346939,287.383392 200.673737,286.630859 
	C199.277664,284.744110 198.248215,283.254913 197.218750,281.765717 
	C197.218750,281.765717 197.211090,281.889862 197.306015,281.516907 
	C196.314743,273.520813 200.442276,269.452698 207.473816,267.115906 
	C218.295975,267.293854 228.655624,267.405243 238.895325,267.811096 
	C238.041336,268.748627 237.310440,269.395233 236.572800,270.034119 
	C233.146973,273.001251 230.923096,276.533325 232.412399,281.203705 
	C234.610184,288.095917 235.883163,288.960999 242.568192,288.978333 
	C250.030487,288.997711 257.492889,288.983246 264.863098,289.185669 
	C264.770935,289.387878 264.618195,289.805176 264.182251,289.848145 
	C244.869659,289.955841 225.993042,290.020538 206.795837,289.939758 
	C204.970200,289.227325 203.465164,288.660339 201.960129,288.093353 
z"/>
<path fill="#E3DBF9" opacity="1.000000" stroke="none" 
	d="
M194.024261,207.267120 
	C191.902878,207.518509 189.782303,207.979736 187.659988,207.987900 
	C171.388000,208.050552 155.110840,207.816391 138.847366,208.194336 
	C135.388855,208.274719 131.442551,209.784256 128.687607,211.896210 
	C125.435646,214.389206 125.404320,218.543060 127.003052,222.445602 
	C127.749779,224.268356 128.339218,226.155563 128.550064,228.451233 
	C120.026604,229.139709 111.953018,229.390488 103.587296,229.633331 
	C102.905495,229.624161 102.515831,229.622925 101.861267,229.472870 
	C101.000305,229.277893 100.404251,229.231720 99.464798,229.111389 
	C94.630325,227.635559 92.481758,224.117706 90.975189,220.019882 
	C90.975189,220.019882 91.000000,220.000000 90.987961,219.613098 
	C91.467743,217.190979 91.959564,215.155762 92.451385,213.120529 
	C95.439644,211.142212 98.427902,209.163895 102.201859,207.119537 
	C107.797203,207.059402 112.606857,207.060089 117.416481,207.072037 
	C142.952408,207.135513 168.488342,207.201813 194.024261,207.267120 
z"/>
<path fill="#8366DB" opacity="1.000000" stroke="none" 
	d="
M230.811783,259.832886 
	C230.811783,259.832886 230.965302,259.445831 231.405304,259.232422 
	C237.213654,256.903473 240.053085,253.168350 239.948318,248.359787 
	C239.835236,243.168289 236.772095,239.634476 230.967392,237.998810 
	C230.967392,237.998810 230.858688,237.658325 230.840820,237.480804 
	C231.591873,237.208771 232.360809,237.114258 233.875092,237.017212 
	C235.097031,237.003983 235.573639,236.993317 236.050232,236.982651 
	C244.472702,237.016556 252.896576,236.969025 261.317108,237.115067 
	C266.329010,237.201981 270.778839,238.776535 273.572906,243.303192 
	C276.032410,247.287811 274.967468,251.237183 272.774780,255.637085 
	C271.621613,256.790375 270.823639,257.417877 270.025696,258.045349 
	C269.750244,258.178345 269.498108,258.346283 268.751892,258.756714 
	C266.830444,259.333527 265.426300,259.702881 263.681213,260.048157 
	C262.885437,260.041443 262.430603,260.058807 261.509460,260.045929 
	C252.372040,260.016968 243.700912,260.018280 234.607269,259.996399 
	C233.060425,259.926422 231.936096,259.879639 230.811783,259.832886 
z"/>
<path fill="#8466DB" opacity="1.000000" stroke="none" 
	d="
M264.618195,289.805176 
	C264.618195,289.805176 264.770935,289.387878 265.221924,289.150848 
	C275.148895,284.245056 275.702942,275.599182 267.229065,268.090546 
	C268.311188,267.582977 269.156342,267.313141 270.001526,267.043274 
	C277.130035,267.064087 284.259552,267.023376 291.386505,267.139313 
	C293.855804,267.179474 296.370911,267.372864 298.774506,267.905151 
	C305.146393,269.316223 308.433289,273.617371 307.957886,279.545624 
	C307.483490,285.460754 303.061615,289.749207 296.642395,289.904572 
	C287.363403,290.129272 278.075989,290.005096 267.916199,290.030334 
	C266.232910,289.955688 265.425537,289.880432 264.618195,289.805176 
z"/>
<path fill="#8366DB" opacity="1.000000" stroke="none" 
	d="
M201.312775,229.037323 
	C209.055878,220.384628 208.906982,214.225449 200.430420,208.061752 
	C200.630539,207.440521 200.861847,207.226761 201.075806,206.994247 
	C209.731613,207.021439 218.388016,207.000366 227.042770,207.110123 
	C229.178879,207.137222 231.411179,207.269501 233.423264,207.908051 
	C238.975616,209.670105 242.259323,214.406555 241.827652,219.514038 
	C241.434402,224.166962 236.747910,229.441818 231.521027,229.599091 
	C221.578125,229.898270 211.612000,229.425644 201.312775,229.037323 
z"/>
<path fill="#5733C4" opacity="1.000000" stroke="none" 
	d="
M235.029800,260.019592 
	C243.700912,260.018280 252.372040,260.016968 261.395325,260.346252 
	C260.487946,262.131897 259.228363,263.586975 257.585510,265.198730 
	C255.061630,265.572693 252.921921,265.967865 250.780396,265.977905 
	C238.285339,266.036530 225.789490,265.956909 213.294876,266.050690 
	C211.197983,266.066437 209.105728,266.700836 207.011322,267.049377 
	C200.442276,269.452698 196.314743,273.520813 197.368164,281.514404 
	C192.510666,277.300781 192.435730,275.782379 196.826340,271.568512 
	C199.431458,269.068268 198.844604,265.704834 195.109222,264.102112 
	C193.066376,263.225647 190.595154,263.016846 188.325760,263.052856 
	C173.759369,263.283875 159.196228,263.745422 144.629562,263.898407 
	C142.805298,263.917572 140.966675,262.570099 139.526062,261.453918 
	C148.236481,261.038910 156.556168,260.952637 164.874435,261.026917 
	C186.966568,261.224152 209.057892,261.520111 231.150299,261.654816 
	C232.440094,261.662689 233.736481,260.589630 235.029800,260.019592 
z"/>
<path fill="#5839B4" opacity="1.000000" stroke="none" 
	d="
M265.967407,175.029205 
	C261.438690,175.468826 256.805695,175.675400 252.172516,175.679947 
	C225.783798,175.705795 199.395035,175.683456 172.533752,175.408859 
	C172.061234,175.140198 171.944336,174.678177 171.944336,174.678177 
	C174.073883,174.448227 176.203033,174.022400 178.333023,174.018280 
	C202.604813,173.971222 226.876801,174.015686 251.148544,173.956619 
	C254.452972,173.948578 257.757904,173.321945 261.059540,173.349243 
	C262.664337,173.362503 264.262115,174.224884 265.967407,175.029205 
z"/>
<path fill="#5738B2" opacity="1.000000" stroke="none" 
	d="
M102.126175,229.621674 
	C102.515831,229.622925 102.905495,229.624161 104.051506,229.757874 
	C135.886047,229.942810 166.964218,229.995300 198.042404,230.047791 
	C195.868362,230.693954 193.690796,231.908936 191.520844,231.895508 
	C175.378098,231.795517 159.237579,231.387848 143.094910,231.204178 
	C129.307632,231.047287 115.518311,231.076019 101.730087,230.990753 
	C94.575958,230.946503 91.676720,228.169891 90.978531,220.420044 
	C92.481758,224.117706 94.630325,227.635559 99.700378,229.328629 
	C100.894966,229.620590 101.510567,229.621140 102.126175,229.621674 
z"/>
<path fill="#5337AE" opacity="1.000000" stroke="none" 
	d="
M200.706696,206.793365 
	C200.861847,207.226761 200.630539,207.440521 200.214844,207.801941 
	C199.311493,207.964828 198.575195,207.961258 197.359100,207.740326 
	C196.660522,207.200394 196.372421,207.116898 196.015015,207.272461 
	C195.571732,207.230148 195.128448,207.187820 194.354706,207.206314 
	C168.488342,207.201813 142.952408,207.135513 117.416481,207.072037 
	C112.606857,207.060089 107.797203,207.059402 102.532211,206.975281 
	C104.179398,206.595291 106.280792,206.041550 108.384651,206.032013 
	C124.157921,205.960526 139.931686,206.002243 155.705292,205.996887 
	C168.451309,205.992554 181.197449,205.942703 193.943253,205.987366 
	C196.075378,205.994827 198.206177,206.381210 200.706696,206.793365 
z"/>
<path fill="#5337AA" opacity="1.000000" stroke="none" 
	d="
M234.607269,259.996399 
	C233.736481,260.589630 232.440094,261.662689 231.150299,261.654816 
	C209.057892,261.520111 186.966568,261.224152 164.874435,261.026917 
	C156.556168,260.952637 148.236481,261.038910 139.446594,261.078125 
	C137.599213,261.071991 136.222641,261.039764 134.441101,260.773560 
	C134.036118,260.539581 134.071350,260.090454 134.071350,260.090454 
	C160.024490,260.027618 185.977631,259.964142 211.930771,259.902405 
	C217.921051,259.888153 223.911346,259.879913 230.356705,259.850891 
	C231.936096,259.879639 233.060425,259.926422 234.607269,259.996399 
z"/>
<path fill="#5337AE" opacity="1.000000" stroke="none" 
	d="
M230.678894,236.867279 
	C200.430130,237.092712 169.825836,237.084381 139.221619,237.133179 
	C137.092972,237.136566 134.965012,237.564270 132.422607,237.809113 
	C134.105728,237.209106 136.199432,236.075165 138.300751,236.060852 
	C158.574234,235.922897 178.849350,235.899597 199.123230,236.000320 
	C209.524094,236.051987 219.923386,236.421417 230.678894,236.867279 
z"/>
<path fill="#6144B7" opacity="1.000000" stroke="none" 
	d="
M117.616638,100.731476 
	C112.188812,101.852669 108.224251,104.917107 107.002968,110.741478 
	C105.743454,116.748177 108.834503,120.818588 113.583710,123.928970 
	C115.924294,125.461891 118.313736,126.920204 120.847427,128.707733 
	C109.718895,127.819214 102.235237,117.341064 105.207985,106.872894 
	C106.184242,103.435135 112.941185,99.901131 117.616638,100.731476 
z"/>
<path fill="#543D8F" opacity="1.000000" stroke="none" 
	d="
M177.003799,197.813812 
	C206.019058,197.861237 235.034302,197.908646 264.901581,197.964600 
	C266.804749,197.958191 267.855865,197.943268 268.922272,198.191742 
	C268.949463,198.630646 268.961426,198.806152 268.973358,198.981644 
	C246.646133,199.045074 224.318893,199.108490 201.077393,199.137909 
	C197.752274,199.147751 195.341415,199.191605 192.930557,199.235458 
	C185.525085,198.964066 178.119598,198.692688 170.761871,198.178894 
	C171.543655,197.899460 172.277710,197.862396 173.011749,197.825348 
	C173.761673,197.867035 174.511581,197.908722 175.882507,197.942047 
	C176.670258,197.893753 176.837021,197.853790 177.003799,197.813812 
z"/>
<path fill="#6144B7" opacity="1.000000" stroke="none" 
	d="
M139.155182,141.208588 
	C140.145828,141.315521 141.244659,141.715118 142.216812,142.318741 
	C146.288651,144.847015 146.267349,145.683655 142.210770,148.297562 
	C133.470398,153.929535 124.735718,159.570328 115.659775,165.295258 
	C118.808640,162.320190 122.138229,159.047394 125.835205,156.262207 
	C128.697281,154.106003 131.980087,152.488571 135.146530,150.761169 
	C138.894913,148.716278 141.060867,146.072922 139.155182,141.208588 
z"/>
<path fill="#B09AF1" opacity="1.000000" stroke="none" 
	d="
M198.122635,229.865997 
	C166.964218,229.995300 135.886047,229.942810 104.343643,229.765793 
	C111.953018,229.390488 120.026604,229.139709 128.568817,228.827271 
	C151.795853,228.875671 174.554260,228.985718 197.790680,229.194046 
	C198.268677,229.292313 198.202866,229.684219 198.122635,229.865997 
z"/>
<path fill="#6144B7" opacity="1.000000" stroke="none" 
	d="
M108.825157,170.142502 
	C106.392479,174.809616 105.502350,179.654556 108.840935,184.477005 
	C112.356071,189.554504 117.412315,190.151855 123.420547,188.870209 
	C120.974571,192.907257 116.871895,191.108627 113.491341,190.367783 
	C108.697861,189.317291 106.033035,185.409012 105.338554,180.709457 
	C104.779190,176.924255 103.838196,172.629517 108.825157,170.142502 
z"/>
<path fill="#5338A0" opacity="1.000000" stroke="none" 
	d="
M264.182251,289.848145 
	C265.425537,289.880432 266.232910,289.955688 267.438354,290.064728 
	C262.637543,290.417664 257.440979,290.959076 252.239319,291.013153 
	C238.146988,291.159729 224.052521,291.099426 209.229263,291.043945 
	C208.038574,290.672943 207.577499,290.379089 207.116425,290.085236 
	C225.993042,290.020538 244.869659,289.955841 264.182251,289.848145 
z"/>
<path fill="#5839B4" opacity="1.000000" stroke="none" 
	d="
M269.369598,198.981903 
	C268.961426,198.806152 268.949463,198.630646 268.963623,197.989349 
	C268.989746,197.523529 269.045197,197.115250 269.045197,197.115250 
	C269.876282,196.850586 270.707367,196.585907 272.038940,196.082458 
	C272.727112,195.576721 272.914795,195.309738 273.102448,195.042770 
	C273.102448,195.042770 273.038330,195.022934 273.328491,194.950867 
	C274.070465,194.248306 274.522278,193.617798 274.974091,192.987289 
	C275.635864,191.231705 276.297668,189.476105 276.976868,186.987579 
	C277.000824,185.501877 277.007416,184.749130 277.127991,184.019775 
	C277.242004,184.043182 277.468658,183.990158 277.468658,183.990158 
	C278.568146,186.352570 281.203094,189.491455 280.475616,190.929977 
	C278.396729,195.040939 275.486237,199.204865 269.369598,198.981903 
z"/>
<path fill="#6144B7" opacity="1.000000" stroke="none" 
	d="
M152.196533,170.953156 
	C159.620239,165.638809 167.429398,160.310852 175.576111,154.893402 
	C175.529633,155.703812 175.401077,156.952499 174.722153,157.449783 
	C167.729660,162.571548 161.255753,168.574829 152.196533,170.953156 
z"/>
<path fill="#6144B7" opacity="1.000000" stroke="none" 
	d="
M144.822739,114.897369 
	C138.689270,111.377266 132.466949,107.525894 126.048897,103.396881 
	C127.262367,102.457069 128.671585,101.794899 128.925674,101.675507 
	C134.449066,106.179482 139.591492,110.372795 144.822739,114.897369 
z"/>
<path fill="#6144B7" opacity="1.000000" stroke="none" 
	d="
M121.069969,129.334229 
	C125.925919,132.088837 130.857101,135.188217 135.978561,138.568146 
	C128.812500,139.639847 124.949783,134.707047 121.069969,129.334229 
z"/>
<path fill="#F8EDFE" opacity="1.000000" stroke="none" 
	d="
M169.000122,176.756439 
	C165.344391,181.233826 164.358429,186.570679 164.025055,192.529694 
	C160.258423,186.743881 161.319504,181.953354 168.042633,176.850189 
	C168.563278,176.677460 169.000122,176.756439 169.000122,176.756439 
z"/>
<path fill="#5733C4" opacity="1.000000" stroke="none" 
	d="
M269.989746,266.632233 
	C269.156342,267.313141 268.311188,267.582977 266.906189,267.984619 
	C265.897522,268.075439 265.448608,268.034485 264.848633,267.816803 
	C264.430695,267.477600 264.187653,267.285065 263.969269,266.802002 
	C263.971008,266.367859 263.971924,266.194214 264.259125,265.895660 
	C264.371002,263.871277 264.196594,261.971741 264.022217,260.072205 
	C265.426300,259.702881 266.830444,259.333527 268.595703,258.922485 
	C269.297211,261.327576 269.637573,263.774353 269.989746,266.632233 
z"/>
<path fill="#5733C4" opacity="1.000000" stroke="none" 
	d="
M206.795837,289.939758 
	C207.577499,290.379089 208.038574,290.672943 208.762604,291.062683 
	C208.198334,292.272003 207.371094,293.385406 206.543854,294.498840 
	C205.028793,292.613556 203.513733,290.728271 201.979401,288.468170 
	C203.465164,288.660339 204.970200,289.227325 206.795837,289.939758 
z"/>
<path fill="#6144B7" opacity="1.000000" stroke="none" 
	d="
M129.164719,185.799072 
	C133.194901,182.771057 137.616837,179.784943 142.386765,176.740646 
	C139.583740,181.522049 135.104568,184.450546 129.164719,185.799072 
z"/>
<path fill="#6144B7" opacity="1.000000" stroke="none" 
	d="
M145.022858,175.649231 
	C146.478546,174.267761 148.314499,172.986252 150.482117,171.601974 
	C150.728439,173.118317 150.643097,174.737396 150.528259,176.916214 
	C148.820602,176.527359 147.111862,176.138275 145.022858,175.649231 
z"/>
<path fill="#F8EDFE" opacity="1.000000" stroke="none" 
	d="
M172.852158,197.535858 
	C172.277710,197.862396 171.543655,197.899460 170.439758,197.918365 
	C170.069916,197.900223 170.059753,197.965805 169.906738,197.700256 
	C169.135849,197.285873 168.518005,197.137024 167.900146,196.988190 
	C166.663406,195.866638 165.426682,194.745071 164.118256,193.316681 
	C166.928558,194.422028 169.810562,195.834198 172.852158,197.535858 
z"/>
<path fill="#5839B4" opacity="1.000000" stroke="none" 
	d="
M193.130325,199.525116 
	C195.341415,199.191605 197.752274,199.147751 200.613129,199.155121 
	C198.485458,199.409134 195.907776,199.611954 193.130325,199.525116 
z"/>
<path fill="#6144B7" opacity="1.000000" stroke="none" 
	d="
M125.835022,102.801994 
	C124.160614,102.512825 122.416855,101.877113 120.357193,101.103676 
	C122.415924,99.669640 124.489441,99.530502 125.835022,102.801994 
z"/>
<path fill="#5839B4" opacity="1.000000" stroke="none" 
	d="
M273.158386,178.652344 
	C272.127106,177.975937 271.095825,177.299530 269.922333,176.347336 
	C273.123230,175.190018 275.114105,176.554977 275.930237,180.317535 
	C275.886902,180.835495 275.886505,181.189636 275.646576,180.981644 
	C274.657227,180.066559 273.907806,179.359451 273.158386,178.652344 
z"/>
<path fill="#6144B7" opacity="1.000000" stroke="none" 
	d="
M124.193924,188.852448 
	C125.259659,187.854828 126.700157,186.871323 128.466095,185.806747 
	C127.383934,186.772644 125.976311,187.819611 124.193924,188.852448 
z"/>
<path fill="#5738B2" opacity="1.000000" stroke="none" 
	d="
M92.118462,213.280731 
	C91.959564,215.155762 91.467743,217.190979 90.975311,219.622559 
	C91.244987,217.826233 91.515259,215.633591 92.118462,213.280731 
z"/>
<path fill="#5733C4" opacity="1.000000" stroke="none" 
	d="
M197.178986,282.171173 
	C198.248215,283.254913 199.277664,284.744110 200.446594,286.553680 
	C199.437119,285.441559 198.288177,284.009094 197.178986,282.171173 
z"/>
<path fill="#6144B7" opacity="1.000000" stroke="none" 
	d="
M113.751755,166.088837 
	C112.958939,167.035431 111.804214,167.980637 110.337097,169.022736 
	C111.146423,168.108902 112.268127,167.098175 113.751755,166.088837 
z"/>
<path fill="#5733C4" opacity="1.000000" stroke="none" 
	d="
M270.282410,258.197693 
	C270.823639,257.417877 271.621613,256.790375 272.681519,255.998322 
	C272.142029,256.672516 271.340576,257.511261 270.282410,258.197693 
z"/>
<path fill="#5733C4" opacity="1.000000" stroke="none" 
	d="
M133.744324,259.939789 
	C134.071350,260.090454 134.036118,260.539581 134.027588,260.764557 
	C132.782608,260.557129 131.546158,260.124695 130.157120,259.391907 
	C131.142120,259.324066 132.279709,259.556580 133.744324,259.939789 
z"/>
<path fill="#745CBB" opacity="1.000000" stroke="none" 
	d="
M169.272079,176.564926 
	C169.000122,176.756439 168.563278,176.677460 168.345276,176.649429 
	C168.241882,176.317795 168.433365,176.074692 169.102829,175.710938 
	C169.758530,175.409058 169.985687,175.249298 170.185425,175.050522 
	C170.578781,174.977615 170.972153,174.904724 171.654922,174.755005 
	C171.944336,174.678177 172.061234,175.140198 172.071411,175.378235 
	C171.235733,175.868652 170.389877,176.121033 169.272079,176.564926 
z"/>
<path fill="#6144B7" opacity="1.000000" stroke="none" 
	d="
M136.228912,139.146378 
	C137.041534,139.319138 137.951157,139.816330 139.015274,140.595459 
	C138.221817,140.408554 137.273849,139.939682 136.228912,139.146378 
z"/>
<path fill="#5839B4" opacity="1.000000" stroke="none" 
	d="
M269.907104,176.004684 
	C269.440826,176.191422 268.915375,176.107101 268.154144,175.894348 
	C268.561554,175.755173 269.204712,175.744400 269.907104,176.004684 
z"/>
<path fill="#745CBB" opacity="1.000000" stroke="none" 
	d="
M276.147095,183.681870 
	C276.147095,183.681870 276.114868,183.314148 276.041260,182.854095 
	C275.940582,181.992569 275.913544,181.591110 275.886505,181.189636 
	C275.886505,181.189636 275.886902,180.835495 275.947906,180.668304 
	C276.426453,181.421097 276.843994,182.341095 277.365112,183.625626 
	C277.468658,183.990158 277.242004,184.043182 276.915588,183.929260 
	C276.589142,183.815353 276.147095,183.681870 276.147095,183.681870 
z"/>
<path fill="#5337AE" opacity="1.000000" stroke="none" 
	d="
M235.854401,236.849854 
	C235.573639,236.993317 235.097031,237.003983 234.262604,236.983490 
	C234.489365,236.873901 235.073959,236.795486 235.854401,236.849854 
z"/>
<path fill="#543D8F" opacity="1.000000" stroke="none" 
	d="
M168.136017,197.191223 
	C168.518005,197.137024 169.135849,197.285873 169.939804,197.697906 
	C169.541229,197.772171 168.956558,197.583221 168.136017,197.191223 
z"/>
<path fill="#6144B7" opacity="1.000000" stroke="none" 
	d="
M143.048584,176.701157 
	C143.189407,176.336868 143.649384,175.953751 144.417862,175.517670 
	C144.273483,175.870575 143.820602,176.276459 143.048584,176.701157 
z"/>
<path fill="#6144B7" opacity="1.000000" stroke="none" 
	d="
M115.135880,165.354401 
	C115.122543,165.518372 114.848946,165.770966 114.285980,166.056168 
	C114.289612,165.873535 114.582611,165.658279 115.135880,165.354401 
z"/>
<path fill="#5839B4" opacity="1.000000" stroke="none" 
	d="
M169.987000,175.115509 
	C169.985687,175.249298 169.758530,175.409058 169.304886,175.586929 
	C169.306259,175.449554 169.533844,175.295044 169.987000,175.115509 
z"/>
<path fill="#F8EDFE" opacity="1.000000" stroke="none" 
	d="
M275.646576,180.981644 
	C275.913544,181.591110 275.940582,181.992569 275.946350,182.695801 
	C274.990509,181.805527 274.055969,180.613495 273.139893,179.036911 
	C273.907806,179.359451 274.657227,180.066559 275.646576,180.981644 
z"/>
<path fill="#F8EDFE" opacity="1.000000" stroke="none" 
	d="
M268.796570,196.916229 
	C269.045197,197.115250 268.989746,197.523529 268.948364,197.725937 
	C267.855865,197.943268 266.804749,197.958191 265.364502,197.898071 
	C266.166229,197.454407 267.357086,197.085800 268.796570,196.916229 
z"/>
<path fill="#F8EDFE" opacity="1.000000" stroke="none" 
	d="
M274.689667,193.092560 
	C274.522278,193.617798 274.070465,194.248306 273.337189,194.983276 
	C273.505554,194.457779 273.955414,193.827805 274.689667,193.092560 
z"/>
<path fill="#F8EDFE" opacity="1.000000" stroke="none" 
	d="
M276.135559,184.027039 
	C276.147095,183.681870 276.589142,183.815353 276.801575,183.905869 
	C277.007416,184.749130 277.000824,185.501877 276.917908,186.623138 
	C276.602356,186.118515 276.363159,185.245361 276.135559,184.027039 
z"/>
<path fill="#F8EDFE" opacity="1.000000" stroke="none" 
	d="
M272.898621,195.146439 
	C272.914795,195.309738 272.727112,195.576721 272.288208,195.860764 
	C272.219330,195.629913 272.438599,195.420670 272.898621,195.146439 
z"/>
<path fill="#F8EDFE" opacity="1.000000" stroke="none" 
	d="
M176.889038,197.733978 
	C176.837021,197.853790 176.670258,197.893753 176.253189,197.874512 
	C176.230972,197.613739 176.488098,197.560013 176.889038,197.733978 
z"/>
<path fill="#E3DBF9" opacity="1.000000" stroke="none" 
	d="
M196.175812,207.417328 
	C196.372421,207.116898 196.660522,207.200394 196.990997,207.739120 
	C196.822067,207.873489 196.566696,207.742462 196.175812,207.417328 
z"/>
<path fill="#ECE7FA" opacity="1.000000" stroke="none" 
	d="
M230.502167,238.018799 
	C236.772095,239.634476 239.835236,243.168289 239.948318,248.359787 
	C240.053085,253.168350 237.213654,256.903473 231.488174,259.041443 
	C211.003189,259.021240 190.874985,259.034912 170.747620,258.912109 
	C160.723984,258.850952 156.449875,252.214981 160.899445,243.274490 
	C161.857056,241.350372 164.692505,239.228363 166.733994,239.154221 
	C183.999481,238.527176 201.281311,238.342590 218.558716,238.054016 
	C222.383804,237.990128 226.210831,238.040833 230.502167,238.018799 
z"/>
<path fill="#ECE6FA" opacity="1.000000" stroke="none" 
	d="
M264.999725,267.993591 
	C265.448608,268.034485 265.897522,268.075439 266.669250,268.222290 
	C275.702942,275.599182 275.148895,284.245056 265.314087,288.948669 
	C257.492889,288.983246 250.030487,288.997711 242.568192,288.978333 
	C235.883163,288.960999 234.610184,288.095917 232.412399,281.203705 
	C230.923096,276.533325 233.146973,273.001251 236.572800,270.034119 
	C237.310440,269.395233 238.041336,268.748627 239.358002,267.738342 
	C247.003922,267.429352 254.067215,267.487549 261.432556,267.670288 
	C262.822968,267.861084 263.911346,267.927338 264.999725,267.993591 
z"/>
<path fill="#5337AE" opacity="1.000000" stroke="none" 
	d="
M261.130493,267.545776 
	C254.067215,267.487549 247.003922,267.429352 239.477966,267.443909 
	C228.655624,267.405243 218.295975,267.293854 207.473816,267.115906 
	C209.105728,266.700836 211.197983,266.066437 213.294876,266.050690 
	C225.789490,265.956909 238.285339,266.036530 250.780396,265.977905 
	C252.921921,265.967865 255.061630,265.572693 257.959259,265.275848 
	C260.468506,265.471008 262.220673,265.745789 263.972839,266.020538 
	C263.971924,266.194214 263.971008,266.367859 263.616272,266.882202 
	C262.551788,267.330505 261.841125,267.438141 261.130493,267.545776 
z"/>
<path fill="#B09AF1" opacity="1.000000" stroke="none" 
	d="
M101.861267,229.472870 
	C101.510567,229.621140 100.894966,229.620590 100.043777,229.402802 
	C100.404251,229.231720 101.000305,229.277893 101.861267,229.472870 
z"/>
<path fill="#5730CB" opacity="1.000000" stroke="none" 
	d="
M264.259125,265.895660 
	C262.220673,265.745789 260.468506,265.471008 258.342590,265.119141 
	C259.228363,263.586975 260.487946,262.131897 261.861633,260.376495 
	C262.430603,260.058807 262.885437,260.041443 263.681213,260.048157 
	C264.196594,261.971741 264.371002,263.871277 264.259125,265.895660 
z"/>
<path fill="#E0D7F8" opacity="1.000000" stroke="none" 
	d="
M261.432556,267.670319 
	C261.841125,267.438141 262.551788,267.330505 263.615417,267.142670 
	C264.187653,267.285065 264.430695,267.477600 264.848633,267.816833 
	C263.911346,267.927338 262.822968,267.861084 261.432556,267.670319 
z"/>
</svg>